<?xml version="1.0" standalone="no"?>
<!DOCTYPE svg PUBLIC "-//W3C//DTD SVG 20010904//EN"
 "http://www.w3.org/TR/2001/REC-SVG-20010904/DTD/svg10.dtd">
<svg version="1.0" xmlns="http://www.w3.org/2000/svg"
 width="1280.000000pt" height="1280.000000pt" viewBox="0 0 1280.000000 1280.000000"
 preserveAspectRatio="xMidYMid meet">
<metadata>
Created by potrace 1.11, written by Peter Selinger 2001-2013
</metadata>
<g transform="translate(0.000000,1280.000000) scale(0.100000,-0.100000)"
fill="#000000" stroke="none">
<path d="M7174 9720 c-62 -17 -164 -63 -225 -102 -94 -60 -260 -220 -344 -332
l-50 -66 -45 5 c-25 4 -59 8 -76 11 -52 8 -105 13 -205 20 -137 9 -174 -12
-251 -146 -33 -57 -96 -123 -137 -145 -36 -18 -171 -33 -171 -19 0 5 7 27 15
49 29 82 14 166 -40 215 -21 20 -37 25 -79 25 -119 0 -183 -106 -144 -236 13
-46 10 -50 -34 -54 -75 -6 -146 72 -162 178 -8 51 -25 61 -49 27 -29 -42 -83
-60 -166 -55 -42 3 -87 7 -101 9 -14 3 -47 8 -75 11 -27 3 -61 8 -75 10 -14 2
-52 6 -85 10 -33 3 -76 8 -95 10 -19 3 -62 7 -95 10 -33 3 -98 10 -145 15 -47
5 -112 12 -145 15 -33 3 -80 8 -105 11 -25 3 -65 7 -90 10 -25 2 -85 9 -135
15 -194 24 -290 19 -372 -23 -52 -26 -73 -45 -113 -104 -32 -46 -96 -204 -82
-204 4 0 21 14 37 31 17 17 44 38 60 47 35 19 146 24 226 11 30 -5 72 -11 94
-14 22 -2 54 -6 70 -9 17 -2 55 -8 85 -11 30 -4 62 -9 71 -10 9 -2 40 -6 70
-10 30 -3 65 -8 79 -10 14 -3 45 -7 70 -10 25 -3 92 -12 150 -21 58 -8 121
-17 140 -19 19 -3 49 -7 65 -10 17 -3 48 -7 70 -10 22 -3 72 -10 110 -15 39
-6 88 -13 110 -15 22 -3 58 -8 80 -12 22 -3 49 -7 60 -8 11 -2 54 -8 95 -14
41 -6 93 -13 115 -16 23 -3 50 -7 60 -9 21 -4 115 -17 154 -22 13 -1 27 -6 30
-11 12 -17 66 -50 101 -61 65 -21 122 -21 187 0 78 26 118 19 163 -27 27 -28
33 -41 33 -79 0 -105 -93 -131 -323 -92 -14 3 -41 7 -60 10 -19 3 -46 8 -60
10 -14 2 -74 12 -135 21 -60 9 -164 25 -230 35 -66 11 -140 22 -165 25 -25 3
-52 8 -60 10 -8 2 -37 6 -65 10 -27 3 -75 10 -105 15 -30 5 -73 12 -95 15 -22
3 -51 7 -65 10 -14 3 -43 7 -65 10 -22 3 -49 7 -60 9 -11 2 -42 7 -70 10 -27
4 -88 13 -135 21 -47 8 -105 17 -130 20 -25 3 -56 8 -70 10 -33 6 -96 15 -140
21 -19 2 -60 9 -90 14 -30 5 -75 12 -100 15 -25 3 -54 8 -65 10 -41 7 -131 19
-145 19 -34 1 -4 -134 41 -182 49 -52 72 -60 244 -87 68 -11 209 -34 235 -39
14 -2 47 -7 73 -11 27 -4 59 -9 70 -11 12 -3 38 -7 57 -10 74 -11 88 -13 185
-29 55 -9 116 -18 135 -21 19 -2 42 -6 50 -9 8 -2 35 -7 60 -10 25 -3 56 -7
70 -10 14 -3 81 -14 150 -25 153 -25 171 -28 240 -40 30 -5 69 -12 85 -14 17
-3 71 -12 120 -20 50 -9 108 -18 130 -21 67 -10 169 -43 205 -67 49 -34 72
-86 73 -167 1 -60 -2 -73 -26 -104 -41 -53 -101 -78 -194 -79 -43 -1 -94 2
-113 5 -19 3 -62 9 -95 13 -33 4 -62 8 -65 9 -3 1 -34 5 -70 9 -36 5 -74 10
-85 12 -11 2 -40 6 -65 9 -25 3 -56 8 -70 10 -27 5 -79 12 -150 20 -25 3 -52
7 -60 9 -8 3 -42 7 -75 11 -33 3 -69 8 -80 10 -11 2 -42 7 -70 10 -27 3 -77
10 -110 15 -33 5 -82 12 -110 15 -61 8 -102 14 -135 20 -14 3 -45 7 -70 9 -25
3 -142 19 -260 35 -118 17 -235 33 -260 36 -25 4 -124 17 -220 31 -96 13 -193
27 -215 30 -22 3 -51 7 -65 9 -39 6 -101 14 -150 20 -25 3 -76 10 -115 16 -38
5 -88 12 -110 15 -22 3 -65 9 -95 14 -136 22 -165 22 -201 1 -19 -11 -47 -28
-64 -37 -16 -9 -138 -80 -270 -157 -132 -77 -253 -148 -270 -157 -156 -88
-546 -316 -567 -331 -15 -10 -29 -19 -32 -19 -3 0 -43 -22 -88 -49 -46 -26
-126 -73 -178 -103 -52 -31 -147 -86 -210 -123 -63 -37 -128 -75 -145 -84
-113 -61 -505 -294 -501 -298 2 -2 19 -7 38 -10 30 -4 226 -37 383 -64 33 -6
71 -12 85 -14 14 -2 39 -6 55 -9 17 -2 50 -8 75 -11 24 -4 47 -8 50 -10 3 -1
32 -6 65 -10 32 -3 62 -8 66 -11 4 -2 28 -6 55 -9 26 -4 51 -8 54 -10 3 -2 28
-6 55 -9 54 -7 87 -12 113 -20 9 -3 40 -8 67 -11 28 -3 77 -10 110 -16 33 -7
71 -13 85 -15 14 -2 50 -8 80 -13 51 -8 58 -7 115 24 217 119 359 195 360 192
2 -1 53 -74 115 -162 62 -88 116 -164 121 -169 4 -5 56 25 116 67 59 42 116
82 126 89 11 7 46 32 79 56 33 24 61 42 62 40 24 -30 100 -139 166 -236 45
-67 87 -125 92 -128 5 -3 84 54 176 127 92 73 172 136 178 141 7 5 54 -57 134
-178 68 -102 127 -187 132 -190 6 -4 240 184 268 216 13 14 91 72 94 69 1 -2
58 -85 126 -184 68 -99 125 -182 127 -184 2 -4 82 47 93 60 15 16 270 189 292
198 66 25 182 -17 273 -101 47 -42 155 -185 155 -204 0 -2 11 -21 23 -42 13
-20 32 -50 42 -66 14 -23 19 -26 26 -14 8 14 7 30 -3 58 -3 8 -16 44 -28 80
-12 36 -26 74 -30 85 -5 11 -21 56 -35 100 -58 170 -96 281 -104 300 -17 38
-75 217 -139 430 -17 55 -45 145 -61 200 -33 106 -37 130 -21 140 10 6 291
-27 340 -40 38 -10 174 -20 265 -19 129 2 221 29 312 91 65 44 243 186 308
246 39 36 69 43 100 23 55 -36 28 -84 -130 -222 -161 -140 -271 -208 -398
-245 -103 -30 -292 -33 -456 -8 -124 19 -156 16 -146 -14 2 -7 37 -115 78
-242 135 -414 147 -454 239 -755 41 -133 45 -145 54 -142 11 3 12 21 3 48 -4
11 -10 43 -14 70 -3 27 -9 75 -14 107 -9 67 -7 298 3 372 21 143 63 250 140
350 50 66 145 150 218 194 l37 22 48 -24 c53 -27 152 -47 230 -47 75 0 200 36
273 78 l66 38 41 -27 c126 -79 325 -99 458 -45 39 16 84 38 100 51 l30 22 55
-34 c153 -93 375 -107 520 -33 46 23 48 22 140 -46 165 -124 252 -262 287
-459 25 -141 21 -404 -7 -544 -18 -89 -19 -102 -7 -98 11 3 20 27 52 137 39
135 98 321 197 625 61 187 113 355 115 373 6 44 -8 47 -114 26 -135 -27 -375
-25 -473 3 -125 36 -138 44 -295 160 -150 111 -265 225 -265 263 0 30 30 60
61 60 9 0 37 -17 62 -37 329 -274 373 -302 506 -327 75 -14 239 -13 338 3 38
6 88 13 113 16 25 3 70 10 100 15 123 19 170 21 177 4 6 -15 -4 -52 -94 -344
-69 -225 -101 -324 -153 -470 -101 -281 -180 -514 -185 -541 -9 -49 12 -41 47
17 116 195 174 270 253 324 84 57 154 77 215 60 19 -6 114 -66 210 -135 96
-69 177 -125 180 -124 3 0 61 83 130 184 69 101 128 183 132 182 8 -2 265
-215 313 -259 17 -16 33 -28 37 -28 4 0 58 75 119 168 62 92 120 177 129 189
l18 23 93 -76 c52 -41 101 -80 109 -87 108 -87 151 -118 158 -113 5 3 47 61
93 128 137 201 160 233 171 230 11 -3 126 -82 261 -180 49 -35 94 -65 101 -68
7 -2 63 68 131 165 l120 170 100 -53 c55 -30 126 -68 158 -85 31 -17 81 -44
110 -60 l53 -28 109 17 c61 10 126 21 145 24 19 3 100 16 180 30 80 13 161 27
180 30 19 3 46 8 60 10 47 9 265 45 310 51 25 3 52 8 60 10 8 3 33 7 55 10 22
2 51 7 65 10 14 2 39 7 55 10 17 3 39 7 50 9 11 2 40 7 65 10 25 3 56 8 70 11
14 3 40 8 58 11 37 7 34 13 -18 42 -19 10 -118 67 -220 127 -102 59 -205 119
-230 133 -25 14 -121 70 -215 125 -286 167 -418 244 -455 265 -36 20 -367 212
-620 360 -80 47 -158 92 -175 102 -16 9 -113 65 -214 124 -201 117 -186 113
-311 91 -22 -3 -143 -20 -225 -31 -16 -2 -82 -11 -145 -19 -63 -9 -133 -18
-155 -21 -22 -3 -51 -7 -65 -9 -14 -2 -45 -6 -70 -10 -25 -3 -56 -8 -70 -10
-14 -2 -45 -7 -70 -10 -25 -4 -56 -8 -70 -10 -14 -2 -50 -7 -80 -10 -30 -3
-66 -8 -80 -10 -14 -2 -43 -6 -65 -9 -22 -3 -89 -13 -150 -21 -136 -19 -175
-25 -217 -30 -55 -7 -132 -17 -148 -20 -8 -1 -40 -6 -70 -10 -30 -4 -62 -9
-71 -10 -9 -2 -40 -6 -70 -10 -30 -3 -94 -12 -144 -20 -49 -8 -112 -17 -140
-20 -27 -3 -61 -8 -75 -10 -14 -2 -45 -7 -70 -10 -25 -3 -76 -10 -115 -16
-217 -31 -434 -61 -465 -65 -38 -4 -80 -11 -120 -19 -92 -19 -161 3 -180 59
-12 38 -10 50 20 151 12 39 22 97 23 130 1 53 -2 66 -35 116 -92 142 -94 163
-30 261 103 154 118 199 127 367 9 181 39 300 95 376 22 30 100 89 143 109 67
31 168 56 229 58 24 1 26 3 16 22 -6 12 -31 47 -55 79 -126 164 -316 230 -509
177z"/>
<path d="M5970 7120 c-145 -77 -314 -82 -466 -15 l-56 25 -64 -65 c-91 -93
-143 -204 -169 -360 -27 -163 -25 -339 6 -535 6 -36 13 -78 16 -95 10 -65 56
-235 88 -331 19 -56 35 -109 35 -119 0 -15 -4 -15 -37 6 -21 12 -71 40 -111
61 -61 33 -73 37 -78 24 -4 -11 17 -41 65 -91 165 -174 234 -299 257 -467 16
-117 9 -191 -31 -313 -23 -68 -149 -394 -175 -450 -5 -11 -20 -48 -34 -82
l-24 -62 56 -21 c83 -29 87 -33 88 -75 2 -55 -43 -106 -166 -191 -224 -155
-332 -299 -334 -442 -1 -85 6 -117 38 -188 26 -56 99 -166 143 -214 12 -14 31
-36 43 -49 11 -13 22 -22 25 -19 3 3 7 43 9 89 10 212 97 364 181 319 59 -32
97 -139 109 -310 2 -25 4 -52 5 -60 1 -8 22 40 46 107 89 249 151 312 229 230
55 -59 76 -181 52 -299 -5 -21 -4 -38 0 -38 31 1 173 249 199 345 20 75 28
226 14 279 -26 105 -62 135 -201 170 -112 28 -148 45 -178 83 -16 20 -20 36
-16 63 8 55 17 80 32 80 7 0 61 -18 121 -40 59 -22 111 -40 114 -40 7 0 18 25
109 250 61 151 89 203 91 170 1 -8 2 -31 4 -50 2 -19 6 -131 9 -249 3 -118 9
-218 13 -222 5 -4 87 -34 184 -66 l175 -59 180 59 c98 32 182 62 186 65 4 4
10 113 14 241 3 129 8 242 9 250 2 9 4 23 4 31 2 34 31 -22 99 -192 84 -208
93 -228 101 -228 3 0 55 18 114 40 60 22 114 40 121 40 16 0 34 -58 31 -99 -5
-61 -47 -89 -192 -127 -54 -14 -112 -34 -129 -45 -51 -31 -77 -98 -80 -204 -3
-106 8 -176 43 -265 38 -96 153 -279 176 -280 4 0 4 17 0 38 -4 20 -8 73 -7
118 1 91 26 158 71 194 76 60 140 -15 224 -262 18 -54 34 -97 35 -95 1 1 5 34
9 72 19 213 76 327 156 310 70 -16 127 -154 134 -328 3 -71 9 -98 18 -86 2 2
29 34 60 71 136 163 190 286 181 415 -9 131 -123 282 -307 407 -155 105 -197
153 -197 224 0 28 4 32 63 51 87 30 88 31 72 66 -50 108 -221 555 -239 627
-26 101 -26 180 -1 303 28 137 94 248 243 406 97 104 95 126 -8 72 -41 -22
-89 -48 -107 -59 -17 -10 -35 -15 -39 -11 -4 4 0 31 10 60 25 73 76 238 81
262 78 356 88 610 34 830 -34 138 -115 275 -197 334 -27 19 -28 19 -67 -1
-142 -69 -326 -65 -481 13 l-62 31 -38 -24 c-92 -57 -189 -78 -339 -74 -99 2
-133 7 -193 29 -40 14 -85 35 -101 46 -36 26 -34 26 -101 -9z"/>
</g>
</svg>
