<?xml version="1.0" ?><!DOCTYPE svg  PUBLIC '-//W3C//DTD SVG 1.1//EN'  'http://www.w3.org/Graphics/SVG/1.1/DTD/svg11.dtd'><svg enable-background="new 0 0 256 256" height="256px" id="Layer_1" version="1.1" viewBox="0 0 256 256" width="256px" xml:space="preserve" xmlns="http://www.w3.org/2000/svg" xmlns:xlink="http://www.w3.org/1999/xlink"><g><g><path d="M207.308,69.378c5.604,0.363,10.778-7.194,5.922-12.804c-1.515-1.749-3.089-2.314-5.212-2.69     c-6.97-23.639-40.093-23.639-47.063,0c-2.124,0.376-3.697,0.941-5.212,2.69c-5.113,5.907,0.892,13.973,6.813,12.681     c1.124-0.246,1.798-1.373,1.48-2.478c-2.475-8.582-0.474-17.465,6.815-23.214c8-6.309,19.268-6.309,27.266,0     c7.293,5.749,9.294,14.632,6.817,23.214c-0.243,0.85,0.098,1.714,0.783,2.178c-0.321,1.146-0.686,2.167-1.093,3.079     c-0.338-1.132-0.564-2.348-0.673-3.675c-0.211-2.623,0.564-5.221,0.564-7.947c0-11.038-8.972-19.99-20.03-19.99     s-20.032,8.952-20.032,19.99c0,2.726,0.777,5.325,0.564,7.947c-0.396,4.843-2.367,8.231-5.5,11.354     c3.789,3.736,8.53,5.71,15.512,4.01c6.117,6.196,12.795,6.196,18.912,0c6.979,1.7,11.721-0.274,15.51-4.01     c-1.722-1.716-3.092-3.512-4.042-5.586l0,0C206.158,72.804,206.789,71.232,207.308,69.378L207.308,69.378z M193.943,78.745     L193.943,78.745c-2.067,0.062-4.396-0.136-7.007-0.481c-0.212-1.077-1.086-1.89-2.305-1.89c-1.221,0-2.351,1.052-2.351,2.346     c0,1.296,1.266,2.347,2.351,2.347c1.084,0,1.635-0.475,2.04-1.181c2.163,0.29,4.16,0.468,5.992,0.49h0.002     c-2.473,2.894-5.324,4.779-8.177,4.779c-3.646,0-7.291-3.08-10.144-7.41c-2.344-3.556-4.119-7.917-4.936-12.155     c-0.051-2.149,2.124-3.596,3.873-6.645c0.062,3.046-0.133,3.828-0.807,6.694c3.362-0.429,7.069-4.766,8.487-8.762     c0.475,3.207,0.667,4.83,0.147,8.069c5.016,0.929,10.6,0.977,15.603,0.178c0.995-1.532,1.842-3.387,2.471-5.078     c0.378,1.564,0.843,3.538,0.193,6.447c-0.881,3.948-2.566,7.947-4.745,11.251C194.407,78.086,194.178,78.419,193.943,78.745     L193.943,78.745L193.943,78.745L193.943,78.745z M153.683,118.241c1.069-5.698,2.735-11.275,4.812-17.953     c1.312-4.216,4.632-5.847,8.694-7.606c1.724-0.746,3.493-1.373,5.298-1.884c-0.333,26.583,24.333,26.583,24,0     c1.803,0.511,3.574,1.138,5.298,1.884c4.062,1.76,7.383,3.391,8.696,7.606c2.074,6.678,3.74,12.255,4.812,17.953H153.683     L153.683,118.241z" fill="#2B78C2"/><path d="M36.929,144.348c-11.167,3.199-25.715,8.146-27.564,14.101c-6.182,19.9-8.976,52.913-9.364,74.706     c-0.023,1.326,0.435,2.476,1.368,3.421C2.299,237.521,3.443,238,4.771,238c42.55,0,85.099,0,127.649,0     c1.329,0,2.473-0.479,3.403-1.425c0.932-0.945,1.39-2.095,1.366-3.421c-0.386-21.793-3.18-54.806-9.357-74.706     c-1.85-5.955-16.4-10.901-27.568-14.101c1.857-3.129-9.469-8.045-31.669-8.045C46.396,136.303,35.069,141.221,36.929,144.348     L36.929,144.348z M28.37,98.17c0.801-0.935,1.135-2.245,0.762-3.535c-4.775-16.563-0.915-33.706,13.153-44.801     c15.436-12.172,37.187-12.172,52.623,0c14.068,11.095,17.93,28.238,13.155,44.801c-0.615,2.13,0.686,4.308,2.855,4.78     c11.429,2.491,23.016-13.073,13.147-24.472c-2.921-3.373-5.958-4.465-10.057-5.192c-13.449-45.619-77.373-45.619-90.822,0     c-4.099,0.728-7.136,1.819-10.057,5.192c-9.111,10.525,0.066,24.595,10.52,24.734C24.934,99.693,27.538,99.146,28.37,98.17     L28.37,98.17z M220.011,154.181c1.486,0,2.747-1.255,2.747-2.741v-7.569c0-1.488-1.259-2.741-2.747-2.741h-71.049     c-1.489,0-2.747,1.255-2.747,2.741v7.569c0,1.486,1.258,2.741,2.747,2.741C195.431,154.181,173.542,154.181,220.011,154.181     L220.011,154.181z M127.053,18H241.92c7.739,0,14.08,6.326,14.08,14.051v90.265c0,7.711-6.353,14.051-14.08,14.051H127.053     c-7.753,0-14.078-6.313-14.078-14.051v-16.665c3.686,0.131,7.142-0.866,10.138-2.651v19.316c0,2.154,1.783,3.935,3.94,3.935     c38.29,0,76.577,0,114.867,0c2.187,0,3.942-1.752,3.942-3.935V32.051c0-2.167-1.77-3.933-3.942-3.933H127.053     c-2.157,0-3.94,1.78-3.94,3.933v34.482c-1.397-0.774-2.878-1.362-4.483-1.826c-1.509-4.196-3.421-8.01-5.655-11.454V32.051     C112.975,24.313,119.3,18,127.053,18L127.053,18z M84.457,130.226c-6.556-0.823-12.761-0.919-15.861-0.919     c-3.16,0-9.548,0.1-16.247,0.97c-5.208-2.254-21.33-21.333-21.33-48.245c0-20.709,16.825-37.501,37.577-37.501     c20.753,0,37.577,16.792,37.577,37.501C106.172,109.103,89.645,127.981,84.457,130.226L84.457,130.226z" fill="#3B4552"/></g></g></svg>